<svg xmlns="http://www.w3.org/2000/svg" viewBox="0 0 1024 1536" aria-hidden="true">
  <defs>
    <filter id="shadow" x="-40%" y="-40%" width="180%" height="180%">
      <feDropShadow dx="0" dy="2" stdDeviation="1.5" flood-color="#26130a" flood-opacity=".85"/>
    </filter>
  </defs>
  <g fill="#ffe46f" stroke="#6d3d19" stroke-width="1.5" paint-order="stroke" filter="url(#shadow)"
     font-family="Georgia, 'Times New Roman', serif" font-size="21" font-weight="700" text-anchor="middle">
    <text x="526" y="137" transform="rotate(-90 526 137)">★★</text>
    <text x="237" y="105" transform="rotate(-90 237 105)">★</text>
    <text x="645" y="165" transform="rotate(-90 645 165)">★★</text>
    <text x="750" y="142" transform="rotate(-90 750 142)">★★</text>
    <text x="822" y="123" transform="rotate(-90 822 123)">★</text>
    <text x="169" y="226" transform="rotate(-90 169 226)">★★</text>
    <text x="420" y="323" transform="rotate(-90 420 323)">★★</text>
    <text x="583" y="350" transform="rotate(-90 583 350)">★★★</text>
    <text x="148" y="357" transform="rotate(-90 148 357)">★</text>
    <text x="320" y="376" transform="rotate(-90 320 376)">★★★</text>
    <text x="689" y="425" transform="rotate(-90 689 425)">★★</text>
    <text x="548" y="478" transform="rotate(-90 548 478)">★★</text>
    <text x="411" y="501" transform="rotate(-90 411 501)">★★★</text>
    <text x="240" y="546" transform="rotate(-90 240 546)">★</text>
    <text x="669" y="577" transform="rotate(-90 669 577)">★★</text>
    <text x="481" y="647" transform="rotate(-90 481 647)">★★</text>
    <text x="144" y="664" transform="rotate(-90 144 664)">★</text>
    <text x="654" y="684" transform="rotate(-90 654 684)">★★</text>
    <text x="340" y="738" transform="rotate(-90 340 738)">★★★</text>
    <text x="489" y="774" transform="rotate(-90 489 774)">★★★</text>
    <text x="300" y="910" transform="rotate(-90 300 910)">★★</text>
    <text x="450" y="926" transform="rotate(-90 450 926)">★★★</text>
    <text x="575" y="914" transform="rotate(-90 575 914)">★★</text>
    <text x="72" y="945" transform="rotate(-90 72 945)">★</text>
    <text x="802" y="1055" transform="rotate(-90 802 1055)">★★</text>
    <text x="330" y="1110" transform="rotate(-90 330 1110)">★★</text>
    <text x="428" y="1146" transform="rotate(-90 428 1146)">★★★</text>
    <text x="683" y="1210" transform="rotate(-90 683 1210)">★</text>
    <text x="808" y="1193" transform="rotate(-90 808 1193)">★</text>
    <text x="169" y="1263" transform="rotate(-90 169 1263)">★</text>
  </g>
</svg>
